<?xml version="1.0" encoding="utf-8"?>
<!-- Generator: Adobe Illustrator 26.0.1, SVG Export Plug-In . SVG Version: 6.00 Build 0)  -->
<svg version="1.1" id="Capa_1" xmlns="http://www.w3.org/2000/svg" xmlns:xlink="http://www.w3.org/1999/xlink" x="0px" y="0px"
	 viewBox="0 0 512 512" style="enable-background:new 0 0 512 512;" xml:space="preserve">
<style type="text/css">
	.st0{fill:#D8ECFE;}
	.st1{fill:#B3DAFE;}
	.st2{fill:#8AC9FE;}
	.st3{fill:#60B7FF;}
	.st4{fill:#EAF6FF;}
	.st5{fill:#C4E2FF;}
	.st6{fill:#FFFFFF;}
	.st7{fill:#0055A3;}
	.st8{fill:#FFE5C2;}
	.st9{fill:#FE646F;}
	.st10{fill:#FD4755;}
</style>
<g>
	<path class="st0" d="M508.5,452.5L491.4,160H371.7c-2.2,0-4.2-1.4-4.9-3.5l-13.7-41c-0.7-2.1-2.7-3.5-4.9-3.5H163.7
		c-2.2,0-4.2,1.4-4.9,3.5l-13.7,41c-0.7,2.1-2.7,3.5-4.9,3.5H5.2c-2.8,0-5.2,2.3-5.2,5.2v326.2l452.5,18.2
		C484.4,510.9,510.4,484.4,508.5,452.5z M320,151.7h-24l-38-0.7l-42,0.7h-24c-4.3,0-7.7-3.5-7.7-7.7c0-4.3,3.5-7.7,7.7-7.7h128
		c4.3,0,7.7,3.5,7.7,7.7C327.7,148.3,324.3,151.7,320,151.7z"/>
	<path class="st1" d="M501.7,160h-10.3v326.2c0,2.8-2.3,5.2-5.2,5.2H0v10.3c0,5.7,4.6,10.3,10.3,10.3h491.4
		c5.7,0,10.3-4.6,10.3-10.3V170.3C512,164.6,507.4,160,501.7,160z"/>
	<path class="st2" d="M457.9,433.8L443.4,208H277.2c-2.8,0-5.2,2.3-5.2,5.2v185.2l168.1,55.3C443,453.7,457.9,436.7,457.9,433.8
		L457.9,433.8z"/>
	<path class="st3" d="M464,213.2c0-2.8-2.3-5.2-5.2-5.2h-15.5v197.6l20.6-5.5V213.2z"/>
	<path class="st4" d="M456.1,459.7l-12.7-99.9c-7.4-4.9-16.2-7.8-25.8-7.8H384l-17.2,29.5L352,352h-38.8
		c-22.8,0-41.2,18.4-41.2,41.2v50.2L456.1,459.7z"/>
	<path class="st5" d="M443.4,359.8v78.4c0,2.8-2.3,5.2-5.2,5.2H272v15.5c0,2.8,2.3,5.2,5.2,5.2H352l16-10.3l16,10.3h74.8
		c2.8,0,5.2-2.3,5.2-5.2v-60.5C464,382.3,455.8,368.1,443.4,359.8z"/>
	<path class="st6" d="M352,352l-29.3,29.3c-1.6,1.6-2,4.1-0.9,6.1l30.2,56l12.9-35.4L352,352z"/>
	<path class="st6" d="M384,352l29.3,29.3c1.6,1.6,2,4.1,0.9,6.1l-30.2,56l-12.2-37.5L384,352z"/>
	<path class="st7" d="M412.8,256v-3.2c0-24.7-20.1-44.8-44.8-44.8c-24.7,0-44.8,20.1-44.8,44.8v12.8l51.9,22.1L412.8,256z"/>
	<path class="st8" d="M397.4,256c-8.8,0-17.5-2-25.3-6l-17-8.5c-1.4-0.7-3,0.3-3,1.9c0,7.5-4.8,14.2-12,16.6l-16.8,5.6v9.6
		c0,24.7,20.1,44.8,44.8,44.8c24.7,0,44.8-20.1,44.8-44.8V256L397.4,256z"/>
	<circle class="st9" cx="96" cy="256" r="48"/>
	<g>
		<path class="st7" d="M189.4,368H50.6c-1.4,0-2.6-1.2-2.6-2.6v-26.8c0-1.4,1.2-2.6,2.6-2.6h138.8c1.4,0,2.6,1.2,2.6,2.6v26.8
			C192,366.8,190.8,368,189.4,368L189.4,368z"/>
		<path class="st7" d="M77.4,464H50.6c-1.4,0-2.6-1.2-2.6-2.6v-26.8c0-1.4,1.2-2.6,2.6-2.6h26.8c1.4,0,2.6,1.2,2.6,2.6v26.8
			C80,462.8,78.8,464,77.4,464z"/>
		<path class="st7" d="M173.4,464h-26.8c-1.4,0-2.6-1.2-2.6-2.6v-26.8c0-1.4,1.2-2.6,2.6-2.6h26.8c1.4,0,2.6,1.2,2.6,2.6v26.8
			C176,462.8,174.8,464,173.4,464z"/>
	</g>
	<path class="st6" d="M112,248.3h-8.3V240c0-4.3-3.5-7.7-7.7-7.7s-7.7,3.5-7.7,7.7v8.3H80c-4.3,0-7.7,3.5-7.7,7.7s3.5,7.7,7.7,7.7
		h8.3v8.3c0,4.3,3.5,7.7,7.7,7.7s7.7-3.5,7.7-7.7v-8.3h8.3c4.3,0,7.7-3.5,7.7-7.7S116.3,248.3,112,248.3z"/>
	<path class="st7" d="M135.7,407.7h-80c-4.3,0-7.7-3.5-7.7-7.7s3.5-7.7,7.7-7.7h80c4.3,0,7.7,3.5,7.7,7.7S140,407.7,135.7,407.7z"/>
	<path class="st7" d="M117.2,464h-10.3c-1.4,0-2.6-1.2-2.6-2.6v-26.8c0-1.4,1.2-2.6,2.6-2.6h10.3c1.4,0,2.6,1.2,2.6,2.6v26.8
		C119.7,462.8,118.6,464,117.2,464z"/>
	<path class="st7" d="M213.2,464h-10.3c-1.4,0-2.6-1.2-2.6-2.6v-26.8c0-1.4,1.2-2.6,2.6-2.6h10.3c1.4,0,2.6,1.2,2.6,2.6v26.8
		C215.7,462.8,214.6,464,213.2,464z"/>
	<path class="st7" d="M245.2,464h-10.3c-1.4,0-2.6-1.2-2.6-2.6v-26.8c0-1.4,1.2-2.6,2.6-2.6h10.3c1.4,0,2.6,1.2,2.6,2.6v26.8
		C247.7,462.8,246.6,464,245.2,464z"/>
	<path class="st9" d="M352,443.4l16,16.3l16-16.3V352h-32V443.4z"/>
	<path class="st10" d="M352,443.4h32V464h-32V443.4z"/>
</g>
</svg>
