<svg id="Capa_1" enable-background="new 0 0 512 512" height="512" viewBox="0 0 512 512" width="512" xmlns="http://www.w3.org/2000/svg"><g><g><path d="m369.882 234.963c-.253 0-.508-.013-.763-.038-2.71-.268-5.079-1.942-6.237-4.406l-17.158-36.506-18.793 25.821c-1.375 1.889-3.53 3.055-5.863 3.173-2.333.13-4.595-.825-6.153-2.566l-12.09-13.507h-87.54c-4.271 0-7.734-3.463-7.734-7.734s3.463-7.734 7.734-7.734h90.998c2.2 0 4.296.937 5.763 2.576l8.012 8.951 20.852-28.652c1.609-2.21 4.268-3.405 6.986-3.148 2.722.259 5.104 1.936 6.267 4.409l17.206 36.609 13.027-17.611c1.459-1.972 3.766-3.135 6.218-3.135h97.821c4.271 0 7.734 3.463 7.734 7.734s-3.463 7.734-7.734 7.734h-93.922l-18.414 24.894c-1.467 1.984-3.78 3.136-6.217 3.136z" fill="#eb5468"/></g><g><path clip-rule="evenodd" d="m36.353 158.527c6.191 8.42 16.615 14.073 30.427 12.412 20.703-21.007 14.571-43.587-1.402-58.766h-6.22c-30.427-.001-35.624 29.018-22.805 46.354z" fill="#ffbc85" fill-rule="evenodd"/></g><g><path clip-rule="evenodd" d="m246.421 112.434c-18.922 12.528-20.061 40.79-1.402 58.504-.029.087-.029.175-.058.262 13.812 1.661 24.236-4.021 30.427-12.412 12.819-17.365 7.621-46.355-22.806-46.355z" fill="#ffbc85" fill-rule="evenodd"/></g><g><path clip-rule="evenodd" d="m312.006 428.175v53.902h-312.006v-110.836c3.3-52.551 41.29-68.813 66.256-80.26l11.673-5.331 155.261-.65 33.205 14.86c-12.88 32.669-5.641 78.579 37.351 120.302z" fill="#f9f7f8" fill-rule="evenodd"/></g><g><path clip-rule="evenodd" d="m155.9 235.124c-15.71 0-30.485-4.05-43.392-11.13v66.371l43.042 22.493 43.742-22.493v-66.371c-12.907 7.081-27.712 11.13-43.392 11.13z" fill="#fed1a3" fill-rule="evenodd"/></g><g><path clip-rule="evenodd" d="m177.858 309.712-22.309-17.423-24.09 18.938v57.63c0 4.079 3.329 7.4 7.417 7.4h34.019c4.088 0 7.446-3.321 7.446-7.4v-57.222z" fill="#beb9dd" fill-rule="evenodd"/></g><g><path clip-rule="evenodd" d="m155.549 292.288-43.042-22.493-34.573 15.85 17.434 48.869c.689 1.93 3.066 2.617 4.678 1.352z" fill="#dddaec" fill-rule="evenodd"/></g><g><path clip-rule="evenodd" d="m199.292 269.796-43.742 22.493 22.309 17.423 33.244 25.958c1.616 1.261 3.992.567 4.675-1.365l17.416-49.3z" fill="#dddaec" fill-rule="evenodd"/></g><g><path clip-rule="evenodd" d="m222.973 313.936 10.22-28.932-33.902-15.209-16.849 8.682c2.629 1.633 31.684 23.484 40.531 35.459z" fill="#beb9dd" fill-rule="evenodd"/></g><g><path clip-rule="evenodd" d="m233.193 285.005-10.22 28.932c46.195 57.339 27.682 147.164 20.849 168.142h68.183v-53.901l-8.264-8.012c-42.983-41.722-50.225-87.64-37.347-120.301z" fill="#dddaec" fill-rule="evenodd"/></g><g><path clip-rule="evenodd" d="m112.508 256.131c20.557 5.507 44.56 11.858 63.891 4.603 6.862-2.564 6.045-.903 6.045 7.022v10.722l16.849-8.682v-35.516c-12.907 7.08-27.711 11.101-43.392 11.101-15.71 0-30.485-4.021-43.392-11.101z" fill="#ffbc85" fill-rule="evenodd"/></g><g><path clip-rule="evenodd" d="m196.167 22.201c-.664 9.797-13.725 26.973-13.725 26.973s1.918 20.577-3.124 28.122c24.528 2.36 66.694 31.641 67.103 64.798v-29.922-9.149c0-35.312-20.557-65.962-50.254-80.822z" fill="#2b4d66" fill-rule="evenodd"/></g><g><path clip-rule="evenodd" d="m179.319 77.297c9.578-14.335 15.447-34.409 16.849-55.095-12.585-6.293-26.864-9.731-41.903-9.469-49.028.845-88.886 41.169-88.886 90.291v9.149c26.456.641 79.659-.641 105.209-24.474 3.182-2.973 6.102-6.469 8.731-10.402z" fill="#375e7d" fill-rule="evenodd"/></g><g><path clip-rule="evenodd" d="m246.421 142.094c-.409-33.156-42.574-62.438-67.103-64.798-2.628 3.933-5.548 7.43-8.731 10.401-25.55 23.833-78.754 25.115-105.209 24.474v42.888c0 7.226.847 14.247 2.482 20.978 6.015 25.028 22.543 46.093 44.648 58.242 12.907 7.08 27.682 11.101 43.392 11.101 15.681 0 30.485-4.021 43.392-11.101 13.14-7.226 24.324-17.627 32.5-30.126 5.548-8.508 9.695-17.977 12.147-28.116 1.606-6.73 2.482-13.752 2.482-20.978v-11.975z" fill="#ffe5c1" fill-rule="evenodd"/></g><g><path clip-rule="evenodd" d="m190.356 79.744c17.199 11.625 33.989 30.33 33.989 52.211 0 23.775-.818 39.945-14.629 61.068-8.147 12.499-19.331 22.901-32.5 30.126-22.222 12.208-48.619 14.48-72.563 6.264 2.511 1.748 5.139 3.38 7.855 4.866 12.907 7.08 27.682 11.101 43.392 11.101 15.681 0 30.485-4.021 43.392-11.101 13.14-7.226 24.324-17.627 32.5-30.126 5.548-8.508 9.695-17.977 12.147-28.116.409-1.661.759-3.38 1.08-5.099.905-5.157 1.402-10.46 1.402-15.879v-12.965c-.35-28.582-31.682-54.25-56.065-62.35z" fill="#fed1a3" fill-rule="evenodd"/></g><g><path clip-rule="evenodd" d="m266.394 299.864c-12.877 32.661-5.636 78.579 37.347 120.301l8.264 8.012 72.372 70.257c1.164 1.13 3.015 1.13 4.179 0l80.665-78.27c27.77-26.98 40.618-55.707 42.779-81.463v-15.441c-4.964-57.922-65.672-93.584-125.533-43.208-51.247-43.121-103.136-23.192-120.073 19.812z" fill="#eb5468" fill-rule="evenodd"/></g><g><path clip-rule="evenodd" d="m440.108 256.16c21.054 10.78 35.654 33.04 37.961 60.252v15.413c-2.132 25.756-14.98 54.513-42.779 81.463l-69.293 67.274 18.38 17.869c1.164 1.131 3.016 1.132 4.18.002l80.663-78.269c27.77-26.98 40.618-55.707 42.779-81.463v-15.441c-3.445-40.178-33.696-69.635-71.891-67.1z" fill="#e5384f" fill-rule="evenodd"/></g><g><path clip-rule="evenodd" d="m331.22 351.026v34.555c0 1.661 1.343 3.001 3.008 3.001h31.916v31.874c0 1.632 1.372 3.001 3.008 3.001h34.632c1.664 0 3.008-1.369 3.008-3.001v-31.874h31.945c1.664 0 3.008-1.34 3.008-3.001v-34.555c0-1.661-1.343-3.001-3.008-3.001h-31.945v-31.875c0-1.661-1.343-3.001-3.008-3.001h-34.632c-1.635 0-3.008 1.34-3.008 3.001v31.874h-31.916c-1.665.001-3.008 1.341-3.008 3.002z" fill="#f9f7f8" fill-rule="evenodd"/></g><g><path clip-rule="evenodd" d="m403.783 313.15h-23.068c3.971 17.481 6.249 38.168 6.249 60.369 0 17.918-1.489 34.875-4.146 49.938h20.966c1.664 0 3.008-1.369 3.008-3.001v-31.874h31.945c1.664 0 3.008-1.34 3.008-3.001v-34.555c0-1.661-1.343-3.001-3.008-3.001h-31.945v-31.875c-.001-1.66-1.345-3-3.009-3z" fill="#dddaec" fill-rule="evenodd"/></g><g><path d="m65.317 429.66v52.417h-15.468v-52.417c0-4.269 3.465-7.734 7.734-7.734 4.27 0 7.734 3.465 7.734 7.734z" fill="#beb9dd"/></g><g><path d="m261.95 429.66v52.417h-15.468v-52.417c0-4.269 3.465-7.734 7.734-7.734s7.734 3.465 7.734 7.734z" fill="#beb9dd"/></g><g><path d="m155.9 350.719h-.204c-4.271 0-7.734-3.463-7.734-7.734s3.463-7.734 7.734-7.734h.204c4.271 0 7.734 3.463 7.734 7.734s-3.463 7.734-7.734 7.734z" fill="#375e7d"/></g></g></svg>