<?xml version="1.0" encoding="UTF-8"?>
<svg id="Layer_2" data-name="Layer 2" xmlns="http://www.w3.org/2000/svg" viewBox="0 0 495.48 463.58">
  <defs>
    <style>
      .cls-1 {
        fill: #9fbaaf;
      }

      .cls-2 {
        fill: #fff7db;
      }

      .cls-3 {
        fill: #ffeca8;
      }

      .cls-4 {
        fill: #faa5e1;
      }

      .cls-5 {
        fill: #ffdd57;
      }

      .cls-6 {
        fill: #f04526;
      }

      .cls-7 {
        fill: #fa87d4;
      }

      .cls-8 {
        fill: #f86237;
      }
    </style>
  </defs>
  <g id="Capa_1" data-name="Capa 1">
    <g>
      <path class="cls-6" d="m129.25,396.52c5.81,9.67,19.82,9.66,25.63,0,6.95-11.55,32.89-54.7,40.87-67.98h-107.37c8.07,13.42,34.03,56.61,40.87,67.98Z"/>
      <path class="cls-8" d="m142.07,0C63.6,0,0,63.6,0,142.07c0,26.73,7.39,51.74,20.23,73.09,0,0,34.06,56.67,68.15,113.38,11.33,18.84,31.7,30.37,53.68,30.37s42.36-11.52,53.68-30.36c34.41-57.23,68.16-113.38,68.16-113.38,12.83-21.35,20.22-46.36,20.22-73.09C284.13,63.6,220.53,0,142.07,0h0Z"/>
      <circle class="cls-2" cx="142.07" cy="142.07" r="82.25"/>
      <path class="cls-7" d="m163.68,102.77c-3.28,0-6.43.57-9.36,1.61l-12.25,88.68c1.43,0,2.85-.41,4.1-1.22,11.86-7.77,45.4-32.29,45.41-61.18,0-15.4-12.49-27.89-27.89-27.89Z"/>
      <path class="cls-4" d="m154.32,104.38c-4.84,1.72-9.07,4.75-12.26,8.65-5.11-6.26-12.9-10.27-21.61-10.27-15.4,0-27.89,12.49-27.89,27.89,0,28.89,33.54,53.41,45.41,61.18,1.25.82,2.67,1.22,4.1,1.22.56,0,1.13-.41,1.62-1.22,4.7-7.77,17.97-32.29,17.97-61.18,0-12.12-3.06-22.44-7.34-26.28Z"/>
      <path class="cls-1" d="m364.39,456.1h-222.32v-14.95h222.32c4.12,0,7.48-3.35,7.48-7.48s-3.35-7.48-7.48-7.48h-80.25c-12.37,0-22.43-10.06-22.43-22.43s10.06-22.43,22.43-22.43h119.63v14.95h-119.63c-4.12,0-7.48,3.35-7.48,7.48s3.35,7.48,7.48,7.48h80.25c12.37,0,22.43,10.06,22.43,22.43s-10.06,22.43-22.43,22.43Z"/>
      <path class="cls-7" d="m391.73,337.15c5.45,9.07,18.61,9.07,24.07,0,8.06-13.41,40.87-67.98,40.87-67.98h-105.8s32.9,54.73,40.87,67.98h0Z"/>
      <path class="cls-4" d="m403.76,87.4c-50.65,0-91.72,41.06-91.72,91.72,0,17.26,4.77,33.4,13.06,47.19,0,0,10.23,17.03,25.75,42.85,11.16,18.57,31.24,29.93,52.9,29.93s41.74-11.36,52.9-29.92c15.73-26.17,25.77-42.86,25.77-42.86,8.29-13.79,13.06-29.93,13.06-47.19,0-50.65-41.06-91.72-91.72-91.72Z"/>
      <circle class="cls-8" cx="403.76" cy="179.11" r="61.81"/>
      <circle class="cls-5" cx="403.76" cy="388.81" r="14.95"/>
      <circle class="cls-5" cx="142.07" cy="448.63" r="14.95"/>
      <path class="cls-3" d="m403.76,147.21c-5.41,0-10.49,1.35-14.95,3.72v56.36c4.46,2.37,9.55,3.72,14.95,3.72,17.62,0,31.9-14.28,31.9-31.9s-14.28-31.9-31.9-31.9Z"/>
      <path class="cls-2" d="m405.76,179.11c0-12.21-6.87-22.82-16.95-28.18-10.08,5.36-16.95,15.97-16.95,28.18s6.87,22.82,16.95,28.18c10.08-5.36,16.95-15.97,16.95-28.18Z"/>
    </g>
  </g>
</svg>