<?xml version="1.0" encoding="UTF-8"?>
<svg id="Layer_2" data-name="Layer 2" xmlns="http://www.w3.org/2000/svg" viewBox="0 0 476.45 436.19">
  <defs>
    <style>
      .cls-1 {
        fill: #366ef7;
      }

      .cls-2 {
        fill: #fff5f8;
      }

      .cls-3 {
        fill: #fff;
      }

      .cls-4 {
        fill: #b5c6ff;
      }

      .cls-5 {
        fill: #ededff;
      }

      .cls-6 {
        fill: #fdf35b;
      }

      .cls-7 {
        fill: #a8bcff;
      }

      .cls-8 {
        fill: #b4d2d7;
      }

      .cls-9 {
        fill: #f5f5ff;
      }

      .cls-10 {
        fill: #faed16;
      }

      .cls-11 {
        fill: #beadfb;
      }

      .cls-12 {
        fill: #ff61b1;
      }

      .cls-13 {
        fill: #4d7ef7;
      }

      .cls-14 {
        fill: #ff75bc;
      }

      .cls-15 {
        fill: #5785f7;
      }

      .cls-16 {
        fill: #9bb9c3;
      }

      .cls-17 {
        fill: #dad2ff;
      }

      .cls-18 {
        fill: #606060;
      }

      .cls-19 {
        fill: #62a4fb;
      }

      .cls-20 {
        fill: #80b6fc;
      }
    </style>
  </defs>
  <g id="Layer_1-2" data-name="Layer 1">
    <g>
      <g>
        <path class="cls-20" d="m301.24,254.11c7.41-1.69,29.54-184.88,29.54-184.88H14.41c-9.71,0-16.64,9.39-13.76,18.65l38.07,122.33c1.77,5.67,4.36,10.92,7.62,15.62,0,0,10.91,26.59,254.89,28.28h0Z"/>
        <path class="cls-19" d="m330.78,69.22l-47.62,157.15c-.92,3.03-3.71,5.11-6.88,5.11H67.71c-7.68,0-15-2.03-21.36-5.66,10.56,15.25,28.12,24.83,47.4,24.83h42.97s47.76,16.31,172.49,9.27c45.99-151.9,42.72-190.7,42.72-190.7h-21.15Z"/>
        <path class="cls-8" d="m316.61,265.1l64.57-217.16s-23.32,1.73-23.32,1.73l-60.9,200.98h-160.24l4.48,14.38,158.03,14.38,11.21,36.55c1.42,4.62-2.05,9.29-6.89,9.29H62.31c-7.76,0-14.43,5.95-14.8,13.68,0,0,23.63,10.13,265.2,9.05,10.83-.05,24.66-20.53,21.82-29.77l-17.93-53.12Z"/>
        <path class="cls-16" d="m309.22,259.93c-.92,3.03-3.71,5.11-6.88,5.11h-161.14l1.33,4.27c1.87,6.02,7.45,10.11,13.76,10.11h153.63c3.16,0,5.95,2.06,6.87,5.08l10.99,35.85c2.83,9.24-4.08,18.6-13.75,18.6H47.51c-.39,8.26,6.2,15.08,14.39,15.08h253.12c19.42,0,33.27-18.78,27.51-37.29l-17.94-57.64,61.14-202.13-6.87-8-7.09,4.35-62.56,206.62Z"/>
        <path class="cls-20" d="m455.67,30.02c20.61-6.73,6.11-23.29,5.97-23.29h-48.04c-26.19,0-49.11,17.66-55.74,42.95l13.92,3.64c36.19-35.37,83.89-23.29,83.89-23.29Z"/>
        <path class="cls-19" d="m462.07,6.74v7.17c0,3.97-3.22,7.19-7.19,7.19h-41.28c-19.61,0-36.8,13.31-41.83,32.21l13.96,3.65c3.32-12.65,14.78-21.48,27.87-21.48h48.44c8.19,0,14.78-6.82,14.39-15.08-.36-7.59-6.79-13.45-14.36-13.66h0Z"/>
        <path class="cls-8" d="m301.24,405.65c0-5.41-2.86-13.82-8.22-18.47-4.22-2.78-9.27-4.4-14.7-4.4-14.77,0-26.75,11.96-26.75,26.71,0,5.41,1.61,10.43,4.38,14.64,4.73,5.42,13.11,8.23,18.54,8.23,14.77,0,26.75-11.96,26.75-26.71Z"/>
        <path class="cls-16" d="m293.03,387.18c2.77,4.2,4.38,9.23,4.38,14.64,0,14.75-11.98,26.71-26.75,26.71-5.43,0-10.48-1.62-14.7-4.4,4.78,7.27,13.01,12.07,22.37,12.07,14.77,0,26.75-11.96,26.75-26.71,0-9.33-4.79-17.53-12.05-22.31h0Z"/>
        <circle class="cls-16" cx="278.33" cy="409.48" r="7.19"/>
        <path class="cls-8" d="m134.52,405.65c0-5.41-2.86-13.82-8.22-18.47-4.22-2.78-9.27-4.4-14.7-4.4-14.77,0-26.75,11.96-26.75,26.71,0,5.41,1.61,10.43,4.38,14.64,4.73,5.42,13.11,8.23,18.54,8.23,14.77,0,26.75-11.96,26.75-26.71Z"/>
        <path class="cls-16" d="m126.31,387.18c2.77,4.2,4.38,9.23,4.38,14.64,0,14.75-11.98,26.71-26.75,26.71-5.43,0-10.48-1.62-14.7-4.4,4.78,7.27,13.01,12.07,22.37,12.07,14.77,0,26.75-11.96,26.75-26.71,0-9.33-4.79-17.53-12.05-22.31h0Z"/>
        <circle class="cls-16" cx="111.61" cy="409.48" r="7.19"/>
      </g>
      <g>
        <path class="cls-18" d="m151.17,58.9c-1.87,0-3.39-1.52-3.39-3.39v-26.27c0-12.38-10.07-22.45-22.45-22.45s-22.45,10.07-22.45,22.45v26.27c0,1.87-1.52,3.39-3.39,3.39s-3.39-1.52-3.39-3.39v-26.27c0-16.12,13.11-29.24,29.24-29.24s29.24,13.11,29.24,29.24v26.27c0,1.87-1.52,3.39-3.39,3.39h0Z"/>
        <path class="cls-11" d="m190,191.11l-24.46,36.51H58.1c-2.9,0-5.05-2.69-4.41-5.51l6.97-31h129.35Z"/>
        <path class="cls-9" d="m190,191.11V55.51c0-2.5-2.02-4.52-4.52-4.52h-120.3c-2.5,0-4.52,2.02-4.52,4.52v135.6"/>
        <path class="cls-5" d="m185.47,50.98h-13.57c2.5,0,4.52,2.02,4.52,4.52v135.6h13.57V55.51c0-2.5-2.02-4.52-4.52-4.52Z"/>
        <circle class="cls-17" cx="125.32" cy="121.04" r="39.99"/>
        <path class="cls-11" d="m125.32,81.05c-2.31,0-4.58.2-6.78.58,18.85,3.22,33.21,19.64,33.21,39.41s-14.35,36.19-33.21,39.41c2.21.38,4.47.58,6.78.58,22.09,0,39.99-17.9,39.99-39.99s-17.9-39.99-39.99-39.99h0Z"/>
        <path class="cls-3" d="m145.11,113.78h-12.53v-12.53h-14.52v12.53h-12.53v14.52h12.53v12.53h14.52v-12.53h12.53v-14.52Z"/>
        <g>
          <g>
            <g>
              <path class="cls-6" d="m165.53,122.06h55.17v105.56h-55.17v-105.56Z"/>
              <path class="cls-10" d="m207.14,122.06h13.57v105.56h-13.57v-105.56Z"/>
              <path class="cls-15" d="m165.53,122.06v53.95c7.34,6.51,17,10.48,27.59,10.48s20.24-3.96,27.59-10.48v-53.95h-55.17Z"/>
              <path class="cls-13" d="m207.14,122.06v61.99c5.04-1.81,9.64-4.55,13.57-8.04v-53.95h-13.57Z"/>
              <g>
                <path class="cls-3" d="m203.1,137.31h-19.95c-1.87,0-3.39,1.52-3.39,3.39s1.52,3.39,3.39,3.39h19.95c1.87,0,3.39-1.52,3.39-3.39s-1.52-3.39-3.39-3.39Z"/>
                <path class="cls-3" d="m197.99,151.78h-9.73c-1.87,0-3.39,1.52-3.39,3.39s1.52,3.39,3.39,3.39h9.73c1.87,0,3.39-1.52,3.39-3.39s-1.52-3.39-3.39-3.39Z"/>
              </g>
            </g>
            <g>
              <path class="cls-14" d="m256.98,226.71h-25.66c-5.84,0-10.58-3.83-10.58-9.68v-48.18c0-2.49.48-4.94,1.38-7.22l21.55-6.46,22.43,6.28c.95,2.33,1.45,4.83,1.45,7.4v48.18c0,5.84-4.74,9.68-10.58,9.68h0Z"/>
              <path class="cls-12" d="m261.95,155.17l-10-10.17h-13.57l10,10.17c3.59,3.65,5.6,8.57,5.6,13.69v48.18c0,5.84-4.74,9.68-10.58,9.68h13.57c5.84,0,10.58-3.83,10.58-9.68v-48.18c0-5.12-2.01-10.04-5.6-13.69Z"/>
              <path class="cls-1" d="m252.28,145h-16.27c-2.36,0-4.28-1.92-4.28-4.28v-2.4c0-4.73,3.83-8.56,8.56-8.56h7.71c4.73,0,8.56,3.83,8.56,8.56v2.4c0,2.36-1.92,4.28-4.28,4.28h0Z"/>
              <path class="cls-2" d="m238.86,207.24h-18.12v-31.56h18.12c2.92,0,5.29,2.37,5.29,5.29v20.98c0,2.92-2.37,5.29-5.29,5.29h0Z"/>
              <path class="cls-9" d="m261.95,155.17l-10-10.17h-15.61l-10,10.17c-1.84,1.87-3.26,4.08-4.22,6.47h44.05c-.95-2.4-2.38-4.6-4.22-6.47Z"/>
              <path class="cls-5" d="m261.95,155.17l-10-10.17h-13.57l10,10.17c1.84,1.87,3.26,4.08,4.22,6.47h13.57c-.95-2.39-2.38-4.6-4.22-6.47Z"/>
            </g>
          </g>
          <g>
            <path class="cls-4" d="m212.84,222.92v-25.5c0-2.59,2.1-4.7,4.7-4.7h54.98c2.59,0,4.7,2.1,4.7,4.7v25.5c0,2.59-2.1,4.7-4.7,4.7h-54.98c-2.59,0-4.7-2.1-4.7-4.7h0Z"/>
            <path class="cls-7" d="m272.51,192.72h-13.57c2.6,0,4.7,2.1,4.7,4.7v25.5c0,2.6-2.1,4.7-4.7,4.7h13.57c2.6,0,4.7-2.1,4.7-4.7v-25.5c0-2.6-2.1-4.7-4.7-4.7h0Z"/>
            <g>
              <g>
                <path class="cls-3" d="m264.76,207.78c4.37,0,4.37-6.78,0-6.78s-4.37,6.78,0,6.78Z"/>
                <path class="cls-3" d="m264.76,219.34c4.37,0,4.37-6.78,0-6.78s-4.37,6.78,0,6.78Z"/>
              </g>
              <g>
                <path class="cls-3" d="m251.6,207.78c4.37,0,4.37-6.78,0-6.78s-4.37,6.78,0,6.78Z"/>
                <path class="cls-3" d="m251.6,219.34c4.37,0,4.37-6.78,0-6.78s-4.37,6.78,0,6.78Z"/>
              </g>
              <g>
                <path class="cls-3" d="m238.45,207.78c4.37,0,4.37-6.78,0-6.78s-4.37,6.78,0,6.78Z"/>
                <path class="cls-3" d="m238.45,219.34c4.37,0,4.37-6.78,0-6.78s-4.37,6.78,0,6.78Z"/>
              </g>
              <g>
                <path class="cls-3" d="m225.29,207.78c4.37,0,4.37-6.78,0-6.78s-4.37,6.78,0,6.78Z"/>
                <path class="cls-3" d="m225.29,219.34c4.37,0,4.37-6.78,0-6.78s-4.37,6.78,0,6.78Z"/>
              </g>
            </g>
          </g>
        </g>
      </g>
    </g>
  </g>
</svg>